<?xml version="1.0" encoding="UTF-8" standalone="no"?>
<!DOCTYPE svg PUBLIC "-//W3C//DTD SVG 1.1//EN" "http://www.w3.org/Graphics/SVG/1.1/DTD/svg11.dtd">
<svg width="100%" height="100%" viewBox="0 0 335 275" version="1.1" xmlns="http://www.w3.org/2000/svg" xmlns:xlink="http://www.w3.org/1999/xlink" xml:space="preserve" xmlns:serif="http://www.serif.com/" style="fill-rule:evenodd;clip-rule:evenodd;stroke-linecap:round;stroke-linejoin:round;stroke-miterlimit:1.5;">
    <g id="Artboard1" transform="matrix(1,0,0,0.921551,-733.035,-967.629)">
        <rect x="733.035" y="1050" width="334.083" height="297.485" style="fill:none;"/>
        <clipPath id="_clip1">
            <rect x="733.035" y="1050" width="334.083" height="297.485"/>
        </clipPath>
        <g clip-path="url(#_clip1)">
            <g id="right-side" serif:id="right side">
                <g id="torso-base" serif:id="torso base" transform="matrix(0.966851,0,0,1.04916,743.658,1059.86)">
                    <path d="M186.174,149.923C186.174,149.923 185.725,154.809 186.223,157.318C187.207,162.277 187.376,166.878 207.061,173.366C217.765,170.369 230.538,152.842 252.479,165.773C252.663,165.573 252.849,165.373 253.037,165.174C263.117,161.054 263.936,142.826 292.592,158.456C289.847,154.556 284.978,142.366 287.57,133.947C283.696,126.406 282.622,118.258 273.881,107.206C272.707,107.153 270.375,106.913 270.375,106.913L270.314,111.231C270.314,111.231 268.547,113.985 264.766,113.893C264.146,114.588 262.821,116.569 256.549,116.254C255.95,117.05 251.22,120.097 248.425,115.179C247.531,115.288 244.845,115.557 243.249,114.459C242.19,113.827 240.02,106.125 242.381,96.156C247.606,89.9 272.788,83.893 283.553,89.989C285.18,91.477 300.898,112.77 303.01,113.995C305.122,115.221 326.845,134.523 332.653,159.862C334.539,160.269 335.024,174.379 334.083,176.076C333.142,177.772 326.107,182.781 322.078,186.434C320.808,189.106 301.104,213.701 271.427,215.054C267.981,215.74 266.131,212.829 254.493,214.49C254.462,214.477 254.432,214.463 254.402,214.448C253.511,219.674 248.714,241.88 227.66,274.148" style="fill:none;stroke:rgb(255,172,0);stroke-width:4.14px;"/>
                </g>
                <g id="arm-detail" serif:id="arm detail" transform="matrix(0.966851,0,0,0.966851,34.922,44.6671)">
                    <g transform="matrix(1,0,0,1.08513,733.035,1050)">
                        <path d="M250.102,182.828C250.102,182.828 276.432,192.4 288.967,171.684" style="fill:none;stroke:rgb(255,172,0);stroke-width:1.03px;"/>
                    </g>
                    <g transform="matrix(1,0,0,1.08513,733.035,1050)">
                        <path d="M251.576,194.3C251.576,194.3 260.537,184.555 283.332,185.036" style="fill:none;stroke:rgb(255,172,0);stroke-width:1.03px;"/>
                    </g>
                    <g transform="matrix(1,0,0,1.08513,733.035,1050)">
                        <path d="M294.201,160.304C294.201,160.304 298.595,169.173 313.179,168.109" style="fill:none;stroke:rgb(255,172,0);stroke-width:1.03px;"/>
                    </g>
                    <g transform="matrix(1,0,0,1.08513,733.035,1050)">
                        <path d="M296.655,163.077C296.655,163.077 315.37,168.235 321.802,152.645" style="fill:none;stroke:rgb(255,172,0);stroke-width:1.03px;"/>
                    </g>
                    <g transform="matrix(1,0,0,1.08513,733.035,1050)">
                        <path d="M294.81,164.251C294.81,164.251 296.932,168.901 303.69,170.244" style="fill:none;stroke:rgb(255,172,0);stroke-width:1.03px;"/>
                    </g>
                    <g transform="matrix(1,0,0,1.08513,733.035,1050)">
                        <path d="M303.69,126.993C303.69,126.993 311.906,130.596 316.063,135.109" style="fill:none;stroke:rgb(255,172,0);stroke-width:1.03px;"/>
                    </g>
                    <g transform="matrix(1,0,0,1.08513,733.035,1050)">
                        <path d="M288.756,186.64C288.756,186.64 300.305,190.764 309.877,189.186" style="fill:none;stroke:rgb(255,172,0);stroke-width:1.03px;"/>
                    </g>
                    <g transform="matrix(1,0,0,1.08513,733.035,1050)">
                        <path d="M280.217,101.326C280.217,101.326 278.883,105.592 274.691,107.318" style="fill:none;stroke:rgb(255,172,0);stroke-width:1.03px;"/>
                    </g>
                    <g transform="matrix(1,0,0,1.08513,733.035,1050)">
                        <path d="M274.691,107.318C274.691,107.318 279.927,101.096 279.045,96.497" style="fill:none;stroke:rgb(255,172,0);stroke-width:1.03px;"/>
                    </g>
                    <g transform="matrix(1,0,0,1.08513,733.035,1050)">
                        <path d="M274.691,107.318C274.691,107.318 279.469,99.408 276.918,94.958" style="fill:none;stroke:rgb(255,172,0);stroke-width:1.03px;"/>
                    </g>
                    <g transform="matrix(1,0,0,1.08513,733.035,1050)">
                        <path d="M270.351,107.318C270.351,107.318 267.657,106.629 265.767,101.907" style="fill:none;stroke:rgb(255,172,0);stroke-width:1.03px;"/>
                    </g>
                    <g transform="matrix(1,0,0,1.08513,733.035,1050)">
                        <path d="M264.955,113.855C264.955,113.855 260.973,115.737 259.324,102.559" style="fill:none;stroke:rgb(255,172,0);stroke-width:1.03px;"/>
                    </g>
                    <g transform="matrix(1,0,0,1.08513,733.035,1050)">
                        <path d="M256.67,116.104C256.67,116.104 252.575,114.059 252.365,103.306" style="fill:none;stroke:rgb(255,172,0);stroke-width:1.03px;"/>
                    </g>
                    <g transform="matrix(1,0,0,1.08513,733.035,1050)">
                        <path d="M248.62,115.144C248.62,115.144 245.998,108.782 246.239,103.306" style="fill:none;stroke:rgb(255,172,0);stroke-width:1.03px;"/>
                    </g>
                </g>
                <g id="chest-detail" serif:id="chest detail" transform="matrix(0.966851,0,0,0.966851,34.922,44.6671)">
                    <g transform="matrix(1,0,0,1.08513,733.035,1050)">
                        <path d="M167.041,249.668C167.041,249.668 179.383,251.837 187.8,258.674C190.268,260.678 193.242,263.595 194.361,269.292" style="fill:none;stroke:rgb(255,172,0);stroke-width:1.03px;"/>
                    </g>
                    <g transform="matrix(1,0,0,1.08513,733.035,1050)">
                        <path d="M246.224,174.371C246.224,174.371 236.352,184.954 235.157,196.457" style="fill:none;stroke:rgb(255,172,0);stroke-width:1.03px;"/>
                    </g>
                    <g transform="matrix(1,0,0,1.08513,733.035,1050)">
                        <path d="M224.039,232.467C224.039,232.467 217.699,219.259 224.672,210.138" style="fill:none;stroke:rgb(255,172,0);stroke-width:1.03px;"/>
                    </g>
                    <g transform="matrix(1,0,0,1.08513,733.035,1051.1)">
                        <path d="M213.328,243.114C213.328,243.114 216.724,240.783 221.4,242.851" style="fill:none;stroke:rgb(255,172,0);stroke-width:1.03px;"/>
                    </g>
                    <g transform="matrix(1,0,0,1.08513,733.035,1050)">
                        <path d="M215.23,251.061C215.23,251.061 218.114,248.764 223.501,250.035" style="fill:none;stroke:rgb(255,172,0);stroke-width:1.03px;"/>
                    </g>
                    <g transform="matrix(1,0,0,1.08513,733.035,1050)">
                        <path d="M210.757,236.153C210.757,236.153 216.334,231.863 223.036,236.701" style="fill:none;stroke:rgb(255,172,0);stroke-width:1.03px;"/>
                    </g>
                    <g transform="matrix(1,0,0,1.08513,733.035,1050)">
                        <path d="M165.491,221.303C165.491,221.303 161.937,231.256 188.478,232.908" style="fill:none;stroke:rgb(255,172,0);stroke-width:1.03px;"/>
                    </g>
                    <g transform="matrix(1,0,0,1.08513,734.177,1051.17)">
                        <path d="M169.092,183.618C169.092,183.618 173.082,183.705 177.407,177.876C181.732,172.047 192.331,172.733 194.307,173.293" style="fill:none;stroke:rgb(255,172,0);stroke-width:1.03px;"/>
                    </g>
                    <g transform="matrix(1,0,0,1.08513,733.035,1050)">
                        <path d="M172.808,172.934C172.808,172.934 175.24,170.287 176.706,166.295" style="fill:none;stroke:rgb(255,172,0);stroke-width:1.03px;"/>
                    </g>
                    <g transform="matrix(1,0,0,1.08513,733.035,1050)">
                        <path d="M203.295,230.936C203.295,230.936 214.944,226.711 217.602,216.487" style="fill:none;stroke:rgb(255,172,0);stroke-width:1.03px;"/>
                    </g>
                    <g transform="matrix(1,0,0,1.08513,733.035,1050)">
                        <path d="M174.757,177.29C174.757,177.29 181.293,169.61 182.841,166.295" style="fill:none;stroke:rgb(255,172,0);stroke-width:1.03px;"/>
                    </g>
                </g>
            </g>
            <g id="left-side" serif:id="left side">
                <g id="torso-base1" serif:id="torso base" transform="matrix(-0.966851,0,0,1.04916,1056.49,1059.86)">
                    <path d="M184.669,152.389C184.669,152.389 185.578,154.067 186.223,157.318C187.207,162.277 187.376,166.878 207.061,173.366C217.765,170.369 230.538,152.842 252.479,165.773C252.663,165.573 252.849,165.373 253.037,165.174C263.117,161.054 263.936,142.826 292.592,158.456C289.847,154.556 284.978,142.366 287.57,133.947C283.696,126.406 282.622,118.258 273.881,107.206C272.707,107.153 270.375,106.913 270.375,106.913L270.314,111.231C270.314,111.231 268.547,113.985 264.766,113.893C264.146,114.588 262.821,116.569 256.549,116.254C255.95,117.05 251.22,120.097 248.425,115.179C247.531,115.288 244.845,115.557 243.249,114.459C242.19,113.827 240.02,106.125 242.381,96.156C247.606,89.9 272.788,83.893 283.553,89.989C285.18,91.477 300.898,112.77 303.01,113.995C305.122,115.221 326.845,134.523 332.653,159.862C334.539,160.269 335.024,174.379 334.083,176.076C333.142,177.772 326.107,182.781 322.078,186.434C320.808,189.106 301.104,213.701 271.427,215.054C267.981,215.74 266.131,212.829 254.493,214.49C254.462,214.477 254.432,214.463 254.402,214.448C253.511,219.674 248.714,241.88 227.66,274.148" style="fill:none;stroke:rgb(255,172,0);stroke-width:4.14px;"/>
                </g>
                <g id="arm-detail1" serif:id="arm detail" transform="matrix(-0.966851,0,0,0.966851,1765.23,44.6671)">
                    <g transform="matrix(1,0,0,1.08513,733.035,1050)">
                        <path d="M250.102,182.828C250.102,182.828 276.432,192.4 288.967,171.684" style="fill:none;stroke:rgb(255,172,0);stroke-width:1.03px;"/>
                    </g>
                    <g transform="matrix(1,0,0,1.08513,733.035,1050)">
                        <path d="M251.576,194.3C251.576,194.3 260.537,184.555 283.332,185.036" style="fill:none;stroke:rgb(255,172,0);stroke-width:1.03px;"/>
                    </g>
                    <g transform="matrix(1,0,0,1.08513,733.035,1050)">
                        <path d="M294.201,160.304C294.201,160.304 298.595,169.173 313.179,168.109" style="fill:none;stroke:rgb(255,172,0);stroke-width:1.03px;"/>
                    </g>
                    <g transform="matrix(1,0,0,1.08513,733.035,1050)">
                        <path d="M296.655,163.077C296.655,163.077 315.37,168.235 321.802,152.645" style="fill:none;stroke:rgb(255,172,0);stroke-width:1.03px;"/>
                    </g>
                    <g transform="matrix(1,0,0,1.08513,733.035,1050)">
                        <path d="M294.81,164.251C294.81,164.251 296.932,168.901 303.69,170.244" style="fill:none;stroke:rgb(255,172,0);stroke-width:1.03px;"/>
                    </g>
                    <g transform="matrix(1,0,0,1.08513,733.035,1050)">
                        <path d="M303.69,126.993C303.69,126.993 311.906,130.596 316.063,135.109" style="fill:none;stroke:rgb(255,172,0);stroke-width:1.03px;"/>
                    </g>
                    <g transform="matrix(1,0,0,1.08513,733.035,1050)">
                        <path d="M288.756,186.64C288.756,186.64 300.305,190.764 309.877,189.186" style="fill:none;stroke:rgb(255,172,0);stroke-width:1.03px;"/>
                    </g>
                    <g transform="matrix(1,0,0,1.08513,733.035,1050)">
                        <path d="M280.217,101.326C280.217,101.326 278.883,105.592 274.691,107.318" style="fill:none;stroke:rgb(255,172,0);stroke-width:1.03px;"/>
                    </g>
                    <g transform="matrix(1,0,0,1.08513,733.035,1050)">
                        <path d="M274.691,107.318C274.691,107.318 279.927,101.096 279.045,96.497" style="fill:none;stroke:rgb(255,172,0);stroke-width:1.03px;"/>
                    </g>
                    <g transform="matrix(1,0,0,1.08513,733.035,1050)">
                        <path d="M274.691,107.318C274.691,107.318 279.469,99.408 276.918,94.958" style="fill:none;stroke:rgb(255,172,0);stroke-width:1.03px;"/>
                    </g>
                    <g transform="matrix(1,0,0,1.08513,733.035,1050)">
                        <path d="M270.351,107.318C270.351,107.318 267.657,106.629 265.767,101.907" style="fill:none;stroke:rgb(255,172,0);stroke-width:1.03px;"/>
                    </g>
                    <g transform="matrix(1,0,0,1.08513,733.035,1050)">
                        <path d="M264.955,113.855C264.955,113.855 260.973,115.737 259.324,102.559" style="fill:none;stroke:rgb(255,172,0);stroke-width:1.03px;"/>
                    </g>
                    <g transform="matrix(1,0,0,1.08513,733.035,1050)">
                        <path d="M256.67,116.104C256.67,116.104 252.575,114.059 252.365,103.306" style="fill:none;stroke:rgb(255,172,0);stroke-width:1.03px;"/>
                    </g>
                    <g transform="matrix(1,0,0,1.08513,733.035,1050)">
                        <path d="M248.62,115.144C248.62,115.144 245.998,108.782 246.239,103.306" style="fill:none;stroke:rgb(255,172,0);stroke-width:1.03px;"/>
                    </g>
                </g>
                <g id="chest-detail1" serif:id="chest detail" transform="matrix(-0.966851,0,0,0.966851,1765.23,44.6671)">
                    <g transform="matrix(1,0,0,1.08513,733.035,1050)">
                        <path d="M167.041,249.668C167.041,249.668 179.383,251.837 187.8,258.674C190.268,260.678 193.242,263.595 194.361,269.292" style="fill:none;stroke:rgb(255,172,0);stroke-width:1.03px;"/>
                    </g>
                    <g transform="matrix(1,0,0,1.08513,733.035,1050)">
                        <path d="M246.224,174.371C246.224,174.371 236.352,184.954 235.157,196.457" style="fill:none;stroke:rgb(255,172,0);stroke-width:1.03px;"/>
                    </g>
                    <g transform="matrix(1,0,0,1.08513,733.035,1050)">
                        <path d="M224.039,232.467C224.039,232.467 217.699,219.259 224.672,210.138" style="fill:none;stroke:rgb(255,172,0);stroke-width:1.03px;"/>
                    </g>
                    <g transform="matrix(1,0,0,1.08513,733.035,1051.1)">
                        <path d="M213.328,243.114C213.328,243.114 216.724,240.783 221.4,242.851" style="fill:none;stroke:rgb(255,172,0);stroke-width:1.03px;"/>
                    </g>
                    <g transform="matrix(1,0,0,1.08513,733.035,1050)">
                        <path d="M215.23,251.061C215.23,251.061 218.114,248.764 223.501,250.035" style="fill:none;stroke:rgb(255,172,0);stroke-width:1.03px;"/>
                    </g>
                    <g transform="matrix(1,0,0,1.08513,733.035,1050)">
                        <path d="M210.757,236.153C210.757,236.153 216.334,231.863 223.036,236.701" style="fill:none;stroke:rgb(255,172,0);stroke-width:1.03px;"/>
                    </g>
                    <g transform="matrix(1,0,0,1.08513,733.035,1050)">
                        <path d="M165.491,221.303C165.491,221.303 161.937,231.256 188.478,232.908" style="fill:none;stroke:rgb(255,172,0);stroke-width:1.03px;"/>
                    </g>
                    <g transform="matrix(1,0,0,1.08513,734.177,1051.17)">
                        <path d="M169.092,183.618C169.092,183.618 173.082,183.705 177.407,177.876C181.732,172.047 192.331,172.733 194.307,173.293" style="fill:none;stroke:rgb(255,172,0);stroke-width:1.03px;"/>
                    </g>
                    <g transform="matrix(1,0,0,1.08513,733.035,1050)">
                        <path d="M172.808,172.934C172.808,172.934 175.24,170.287 176.706,166.295" style="fill:none;stroke:rgb(255,172,0);stroke-width:1.03px;"/>
                    </g>
                    <g transform="matrix(1,0,0,1.08513,733.035,1050)">
                        <path d="M203.295,230.936C203.295,230.936 214.944,226.711 217.602,216.487" style="fill:none;stroke:rgb(255,172,0);stroke-width:1.03px;"/>
                    </g>
                    <g transform="matrix(1,0,0,1.08513,733.035,1050)">
                        <path d="M174.757,177.29C174.757,177.29 181.293,169.61 182.841,166.295" style="fill:none;stroke:rgb(255,172,0);stroke-width:1.03px;"/>
                    </g>
                </g>
            </g>
            <g id="helm" transform="matrix(1.53502,0,0,1.53502,-489.684,-550.782)">
                <g id="left-side1" serif:id="left side" transform="matrix(-1,0,0,1,1810.78,0)">
                    <g id="hel_base" transform="matrix(0.807424,0,0,0.876157,818.582,1035.57)">
                        <path d="M107.945,51.321C107.945,51.321 134.239,50.508 144.983,76.713C147.92,83.876 149.335,87.526 149.356,95.106" style="fill:none;stroke:rgb(255,172,0);stroke-width:1.61px;"/>
                    </g>
                    <g transform="matrix(0.807424,0,0,0.876157,818.582,1035.57)">
                        <path d="M116.423,95.575C116.423,95.575 133.346,112.638 145.742,93.044C148.246,93.894 149.356,94.534 149.356,94.534C149.356,94.534 137.136,138.986 108.624,138.894" style="fill:none;stroke:rgb(255,172,0);stroke-width:1.61px;"/>
                    </g>
                    <g transform="matrix(0.807424,0,0,0.876157,822.109,1036.59)">
                        <path d="M109.343,72.13C107.573,71.241 105.574,70.741 103.46,70.741C103.37,70.741 103.281,70.742 103.191,70.743C103.195,57.288 103.194,45.297 103.181,44.745C104.168,49.326 108.756,49.266 108.756,49.266C108.756,49.266 108.834,68.724 108.905,69.873C108.932,70.311 109.008,71.178 109.343,72.13ZM115.107,89.953C116.058,88.136 116.596,86.068 116.596,83.876C116.596,80.909 115.609,78.17 113.947,75.969C114.292,76.033 114.661,76.077 115.054,76.1C127.63,76.834 137.238,83.132 140.629,85.207C143.896,87.207 144.586,89.071 144.989,93.943C127.027,85.043 119.202,86.47 115.107,89.953ZM103.18,97.009C103.273,97.011 103.367,97.012 103.46,97.012C106.714,97.012 109.693,95.826 111.989,93.864C111.973,93.89 111.957,93.917 111.942,93.943C110.158,98.748 111.695,125.103 111.736,126.962C111.933,135.776 107.698,131.519 103.163,142.467C103.158,140.43 103.17,118.056 103.18,97.009Z" style="fill:rgb(255,172,0);stroke:rgb(255,172,0);stroke-width:0.81px;"/>
                    </g>
                    <g id="horn_base" transform="matrix(0.807424,0,0,0.876157,818.582,1035.57)">
                        <path d="M150.364,65.271C150.364,65.271 169.191,50.041 151.931,29.479C148.478,24.698 141.004,20.562 131.42,17.696C125.208,16.033 118.387,15.884 124.684,18.39C130.796,20.489 155.707,38.185 138.623,52.018" style="fill:none;stroke:rgb(255,172,0);stroke-width:1.61px;"/>
                    </g>
                    <g id="horn_base1" serif:id="horn_base" transform="matrix(0.807424,0,0,0.876157,818.582,1035.57)">
                        <path d="M143.684,73.471C146.996,70.599 148.109,69.888 151.419,66.609C151.213,66.217 138.009,51.291 137.301,50.667C135.288,51.968 132.469,54.947 129.326,57.551C129.326,57.551 139.205,62.552 143.684,73.471Z" style="fill:rgb(255,172,0);stroke:rgb(255,172,0);stroke-width:1.61px;"/>
                    </g>
                </g>
                <g id="right-side1" serif:id="right side">
                    <g id="hel_base1" serif:id="hel_base" transform="matrix(0.807424,0,0,0.876157,818.582,1035.57)">
                        <path d="M107.945,51.321C107.945,51.321 134.239,50.508 144.983,76.713C147.92,83.876 149.335,87.526 149.356,95.106" style="fill:none;stroke:rgb(255,172,0);stroke-width:1.61px;"/>
                    </g>
                    <g transform="matrix(0.807424,0,0,0.876157,818.582,1035.57)">
                        <path d="M116.423,95.575C116.423,95.575 133.346,112.638 145.742,93.044C148.246,93.894 149.356,94.534 149.356,94.534C149.356,94.534 137.136,138.986 108.624,138.894" style="fill:none;stroke:rgb(255,172,0);stroke-width:1.61px;"/>
                    </g>
                    <g transform="matrix(0.807424,0,0,0.876157,822.109,1036.59)">
                        <path d="M109.343,72.13C107.573,71.241 105.574,70.741 103.46,70.741C103.37,70.741 103.281,70.742 103.191,70.743C103.195,57.288 103.194,45.297 103.181,44.745C104.168,49.326 108.756,49.266 108.756,49.266C108.756,49.266 108.834,68.724 108.905,69.873C108.932,70.311 109.008,71.178 109.343,72.13ZM115.107,89.953C116.058,88.136 116.596,86.068 116.596,83.876C116.596,80.909 115.609,78.17 113.947,75.969C114.292,76.033 114.661,76.077 115.054,76.1C127.63,76.834 137.238,83.132 140.629,85.207C143.896,87.207 144.586,89.071 144.989,93.943C127.027,85.043 119.202,86.47 115.107,89.953ZM103.18,97.009C103.273,97.011 103.367,97.012 103.46,97.012C106.714,97.012 109.693,95.826 111.989,93.864C111.973,93.89 111.957,93.917 111.942,93.943C110.158,98.748 111.695,125.103 111.736,126.962C111.933,135.776 107.698,131.519 103.163,142.467C103.158,140.43 103.17,118.056 103.18,97.009Z" style="fill:rgb(255,172,0);stroke:rgb(255,172,0);stroke-width:0.81px;"/>
                    </g>
                    <g id="horn_base2" serif:id="horn_base" transform="matrix(0.807424,0,0,0.876157,818.582,1035.57)">
                        <path d="M150.364,65.271C150.364,65.271 169.191,50.041 151.931,29.479C148.478,24.698 141.004,20.562 131.42,17.696C125.208,16.033 118.387,15.884 124.684,18.39C130.796,20.489 155.707,38.185 138.623,52.018" style="fill:none;stroke:rgb(255,172,0);stroke-width:1.61px;"/>
                    </g>
                    <g id="horn_base3" serif:id="horn_base" transform="matrix(0.807424,0,0,0.876157,818.582,1035.57)">
                        <path d="M143.684,73.471C146.996,70.599 148.109,69.888 151.419,66.609C151.213,66.217 138.009,51.291 137.301,50.667C135.288,51.968 132.469,54.947 129.326,57.551C129.326,57.551 139.205,62.552 143.684,73.471Z" style="fill:rgb(255,172,0);stroke:rgb(255,172,0);stroke-width:1.61px;"/>
                    </g>
                </g>
                <g transform="matrix(0.663665,0,0,0.720161,823.077,1048.38)">
                    <path d="M124.497,71.896C132.094,71.896 138.263,78.064 138.263,85.662C138.263,93.26 132.094,99.428 124.497,99.428C116.899,99.428 110.731,93.26 110.731,85.662C110.731,78.064 116.899,71.896 124.497,71.896ZM125.542,89.162L125.542,86.259C125.699,86.231 125.928,86.199 126.229,86.162C126.53,86.125 126.845,86.09 127.174,86.058C127.502,86.025 127.817,85.998 128.118,85.974C128.419,85.951 128.648,85.94 128.806,85.94C128.899,85.94 128.977,85.898 129.042,85.815C129.107,85.731 129.139,85.616 129.139,85.467C129.139,85.301 129.051,85.217 128.875,85.217C128.653,85.217 128.354,85.243 127.979,85.294C127.604,85.345 127.176,85.37 126.694,85.37L125.597,85.37C125.597,85.25 125.595,85.132 125.59,85.016C125.586,84.9 125.583,84.782 125.583,84.662C125.583,84.301 125.586,83.942 125.59,83.585C125.595,83.229 125.611,82.916 125.639,82.648C125.657,82.49 125.678,82.393 125.701,82.356C125.724,82.319 125.759,82.296 125.805,82.286C125.963,82.259 126.178,82.231 126.451,82.203L127.333,82.113L128.264,82.015C128.57,81.983 128.829,81.948 129.042,81.911C129.088,81.902 129.132,81.877 129.174,81.835C129.216,81.793 129.253,81.747 129.285,81.696C129.318,81.645 129.345,81.592 129.368,81.536C129.392,81.481 129.403,81.439 129.403,81.411C129.403,81.356 129.385,81.319 129.348,81.3C129.311,81.282 129.278,81.272 129.25,81.272C129.149,81.272 128.975,81.279 128.73,81.293C128.484,81.307 128.206,81.321 127.896,81.335L126.917,81.376C126.574,81.39 126.255,81.397 125.958,81.397C125.69,81.397 125.484,81.386 125.34,81.363C125.197,81.339 125.065,81.328 124.944,81.328C124.879,81.328 124.801,81.358 124.708,81.418C124.615,81.478 124.525,81.55 124.437,81.633C124.349,81.717 124.275,81.802 124.215,81.89C124.155,81.978 124.125,82.046 124.125,82.092C124.125,82.194 124.162,82.323 124.236,82.481C124.31,82.638 124.402,82.796 124.514,82.953C124.523,83.092 124.537,83.266 124.555,83.474C124.574,83.682 124.59,83.886 124.604,84.085C124.618,84.284 124.632,84.465 124.646,84.627C124.659,84.789 124.666,84.898 124.666,84.953C124.666,85.111 124.646,85.254 124.604,85.384C124.562,85.514 124.541,85.653 124.541,85.801C124.541,85.893 124.551,85.974 124.569,86.044C124.588,86.113 124.611,86.185 124.639,86.259C124.666,86.333 124.69,86.417 124.708,86.509C124.727,86.602 124.736,86.727 124.736,86.884C124.736,87.533 124.731,88.053 124.722,88.447C124.713,88.841 124.703,89.151 124.694,89.378C124.685,89.605 124.676,89.776 124.666,89.892C124.657,90.007 124.653,90.112 124.653,90.204C124.653,90.251 124.673,90.294 124.715,90.336C124.757,90.378 124.805,90.417 124.861,90.454C124.916,90.491 124.977,90.521 125.041,90.545C125.106,90.568 125.162,90.579 125.208,90.579C125.273,90.579 125.326,90.519 125.368,90.399C125.41,90.278 125.444,90.139 125.472,89.982C125.5,89.825 125.518,89.667 125.528,89.51C125.537,89.352 125.542,89.236 125.542,89.162ZM119.93,85.134C119.93,85.866 119.932,86.488 119.937,87.002C119.941,87.516 119.948,87.942 119.957,88.28C119.967,88.618 119.983,88.882 120.006,89.072C120.029,89.262 120.059,89.403 120.096,89.496C120.133,89.588 120.177,89.646 120.228,89.669C120.279,89.693 120.337,89.704 120.402,89.704C120.559,89.704 120.673,89.614 120.742,89.433C120.812,89.253 120.846,88.885 120.846,88.329C120.846,86.662 120.858,85.349 120.881,84.391C120.904,83.432 120.934,82.749 120.971,82.342C120.981,82.184 121.006,82.048 121.048,81.932C121.089,81.816 121.11,81.703 121.11,81.592C121.11,81.536 121.045,81.469 120.916,81.39C120.786,81.312 120.67,81.272 120.569,81.272C120.504,81.272 120.413,81.307 120.298,81.376C120.182,81.446 120.068,81.527 119.957,81.62C119.846,81.712 119.749,81.809 119.666,81.911C119.582,82.013 119.541,82.092 119.541,82.147C119.541,82.222 119.557,82.298 119.589,82.377C119.622,82.455 119.684,82.546 119.777,82.648C119.832,82.712 119.865,82.789 119.874,82.877C119.883,82.965 119.888,83.074 119.888,83.203C119.888,83.444 119.895,83.703 119.909,83.981C119.923,84.259 119.93,84.643 119.93,85.134ZM116.637,88.496L114.123,88.593C114.058,88.593 114,88.602 113.95,88.621C113.899,88.639 113.85,88.648 113.804,88.648C113.693,88.648 113.637,88.611 113.637,88.537C113.637,88.454 113.646,88.315 113.665,88.121C113.683,87.926 113.702,87.699 113.72,87.44C113.739,87.181 113.757,86.9 113.776,86.599C113.794,86.299 113.804,86.004 113.804,85.717C113.804,85.412 113.799,85.146 113.79,84.919C113.781,84.692 113.776,84.449 113.776,84.189C113.776,83.8 113.79,83.402 113.818,82.995C113.845,82.587 113.859,82.175 113.859,81.758C113.859,81.629 113.878,81.504 113.915,81.383C113.952,81.263 113.97,81.161 113.97,81.078C113.97,80.976 113.91,80.895 113.79,80.835C113.669,80.775 113.568,80.744 113.484,80.744C113.438,80.744 113.357,80.777 113.241,80.842C113.125,80.907 113.01,80.983 112.894,81.071C112.778,81.159 112.676,81.249 112.588,81.342C112.5,81.434 112.456,81.504 112.456,81.55C112.456,81.606 112.479,81.677 112.526,81.765C112.572,81.853 112.621,82.011 112.672,82.238C112.722,82.465 112.771,82.779 112.817,83.182C112.864,83.585 112.887,84.125 112.887,84.801L112.887,86.759C112.887,87.046 112.885,87.296 112.88,87.509C112.875,87.722 112.868,87.903 112.859,88.051C112.859,88.227 112.813,88.364 112.72,88.461C112.628,88.558 112.581,88.644 112.581,88.718C112.581,88.746 112.597,88.799 112.63,88.878C112.662,88.956 112.706,89.035 112.762,89.114C112.817,89.192 112.875,89.264 112.935,89.329C112.996,89.394 113.054,89.426 113.109,89.426C113.276,89.426 113.419,89.394 113.54,89.329C113.577,89.311 113.621,89.294 113.672,89.28C113.723,89.267 113.804,89.257 113.915,89.253C114.026,89.248 114.176,89.243 114.366,89.239C114.556,89.234 114.808,89.232 115.123,89.232C115.42,89.232 115.663,89.234 115.853,89.239C116.042,89.243 116.193,89.248 116.304,89.253C116.415,89.257 116.494,89.262 116.54,89.267C116.586,89.271 116.619,89.278 116.637,89.287L116.95,89.392C117.019,89.415 117.096,89.426 117.179,89.426C117.235,89.426 117.288,89.378 117.339,89.28C117.39,89.183 117.436,89.077 117.478,88.961C117.519,88.845 117.552,88.734 117.575,88.628C117.598,88.521 117.61,88.454 117.61,88.426C117.61,88.306 117.531,88.246 117.374,88.246C117.272,88.246 117.156,88.285 117.026,88.364C116.897,88.442 116.767,88.486 116.637,88.496ZM131.251,82.467L132.834,82.467C132.881,82.884 132.908,83.291 132.918,83.689C132.927,84.088 132.932,84.495 132.932,84.912C132.932,85.403 132.92,85.824 132.897,86.176C132.874,86.528 132.85,86.824 132.827,87.065C132.804,87.306 132.781,87.5 132.758,87.648C132.735,87.796 132.723,87.917 132.723,88.009C132.723,88.176 132.765,88.354 132.848,88.544C132.932,88.734 133.052,88.91 133.209,89.072C133.367,89.234 133.554,89.366 133.772,89.468C133.99,89.57 134.237,89.621 134.515,89.621C134.654,89.621 134.814,89.588 134.994,89.524C135.175,89.459 135.316,89.389 135.418,89.315C135.501,89.241 135.543,89.135 135.543,88.996C135.543,88.94 135.536,88.878 135.522,88.808C135.508,88.739 135.469,88.704 135.404,88.704C135.358,88.704 135.286,88.711 135.189,88.725C135.092,88.739 135.011,88.746 134.946,88.746C134.705,88.746 134.506,88.709 134.348,88.635C134.191,88.56 134.068,88.466 133.98,88.35C133.892,88.234 133.83,88.104 133.793,87.961C133.756,87.817 133.737,87.671 133.737,87.523C133.737,86.866 133.744,86.28 133.758,85.766C133.772,85.252 133.79,84.791 133.814,84.384C133.837,83.976 133.865,83.613 133.897,83.293C133.929,82.974 133.969,82.68 134.015,82.411L134.46,82.411C134.635,82.411 134.816,82.407 135.001,82.397L135.55,82.37C135.731,82.36 135.89,82.347 136.029,82.328C136.094,82.319 136.163,82.291 136.238,82.245C136.312,82.198 136.379,82.143 136.439,82.078C136.499,82.013 136.55,81.951 136.592,81.89C136.633,81.83 136.654,81.782 136.654,81.745C136.654,81.615 136.585,81.55 136.446,81.55C135.937,81.55 135.427,81.569 134.918,81.606C134.409,81.643 133.899,81.661 133.39,81.661C133.001,81.661 132.668,81.654 132.39,81.64C132.112,81.627 131.873,81.613 131.674,81.599L131.167,81.564C131.028,81.555 130.908,81.55 130.806,81.55C130.723,81.55 130.633,81.601 130.535,81.703C130.438,81.805 130.389,81.893 130.389,81.967C130.389,82.087 130.417,82.205 130.473,82.321C130.528,82.437 130.612,82.495 130.723,82.495C130.815,82.495 130.906,82.49 130.994,82.481C131.082,82.472 131.167,82.467 131.251,82.467Z" style="fill:rgb(255,172,0);"/>
                </g>
            </g>
            <g transform="matrix(1,0,0,1.08513,733.035,1050)">
                <path d="M214.384,104.94C214.384,104.94 202.957,142.293 177.751,145.779" style="fill:none;stroke:rgb(255,172,0);stroke-width:1px;"/>
            </g>
            <g transform="matrix(-1,0,0,1.08513,1068.16,1050)">
                <path d="M214.384,104.94C214.384,104.94 202.957,142.293 177.751,145.779" style="fill:none;stroke:rgb(255,172,0);stroke-width:1px;"/>
            </g>
        </g>
    </g>
</svg>
